<?xml version="1.0" encoding="UTF-8"?>
<svg width="260pt" height="260pt" version="1.1" xmlns="http://www.w3.org/2000/svg">
<svg width="260pt" height="260pt" version="1.0" viewBox="0 0 260.000000 260.000000" xmlns="http://www.w3.org/2000/svg">
<g transform="translate(0 260) scale(.1 -.1)">
<path d="m1188 2595c-2-1-23-5-48-9-98-13-116-16-204-41-387-111-726-432-859-815-52-148-69-246-72-419-5-356 126-675 384-932 159-158 329-261 532-323 147-45 221-54 399-52 232 3 347 30 555 131 314 152 565 443 670 780 52 166 70 441 39 606-91 479-427 864-884 1013-138 45-218 58-377 61-73 1-133 1-135 0zm-419-238c7-9 12-101 13-268l3-253 33-3c24-2 32 1 33 15 1 9 2 125 3 257 0 132 5 246 9 253 11 16 42 15 56-1 7-9 12-101 13-267l3-254 28-1c15-1 31 3 36 9s9 108 9 226c0 300 0 290 18 297 9 3 24 2 33-4 14-9 17-45 21-269l5-259 33-1c17-1 33 2 33 5 1 3 2 119 3 256 1 138 5 256 9 263 10 15 39 16 55 0 14-14 17-713 3-750-15-39-57-76-99-88l-41-11v-619c-1-687 1-668-65-695-63-27-153 18-157 78-1 12-3 288-4 612-3 682-2 638-15 630-17-11-96 35-115 68-18 30-20 55-20 392-1 198 2 368 7 378 10 20 41 22 57 4zm1006-18c19-13 44-43 55-66 20-42 20-63 20-1016 0-642-4-984-10-1004-14-38-57-63-109-63-33 0-48 6-71 30-17 17-31 41-31 53-1 12-3 186-4 387s-3 372-4 380c-1 12-14 15-61 14l-60-1v582c0 407 3 592 11 616 15 44 65 97 104 109 49 15 121 6 160-21z"/>
</g>
</svg>
</svg>
